<?xml version="1.0" encoding="UTF-8" standalone="no"?>
<!-- Created with Inkscape (http://www.inkscape.org/) -->

<svg
   width="200pt"
   height="100pt"
   viewBox="0 0 70.555554 35.277777"
   version="1.1"
   id="svg5"
   inkscape:version="1.2.2 (b0a8486541, 2022-12-01)"
   sodipodi:docname="console_activity_2.svg"
   xmlns:inkscape="http://www.inkscape.org/namespaces/inkscape"
   xmlns:sodipodi="http://sodipodi.sourceforge.net/DTD/sodipodi-0.dtd"
   xmlns="http://www.w3.org/2000/svg"
   xmlns:svg="http://www.w3.org/2000/svg">
  <sodipodi:namedview
     id="namedview7"
     pagecolor="#ffffff"
     bordercolor="#000000"
     borderopacity="0.25"
     inkscape:showpageshadow="2"
     inkscape:pageopacity="0.0"
     inkscape:pagecheckerboard="0"
     inkscape:deskcolor="#d1d1d1"
     inkscape:document-units="mm"
     showgrid="false"
     inkscape:zoom="2.3813131"
     inkscape:cx="99.73489"
     inkscape:cy="105.614"
     inkscape:window-width="1920"
     inkscape:window-height="1018"
     inkscape:window-x="0"
     inkscape:window-y="34"
     inkscape:window-maximized="1"
     inkscape:current-layer="layer1" />
  <defs
     id="defs2">
    <linearGradient
       id="SVGID_1_"
       gradientUnits="userSpaceOnUse"
       x1="63.815899"
       y1="56.682899"
       x2="118.4934"
       y2="1.8225"
       gradientTransform="matrix(1,0,0,-1,-53.2974,66.4321)">
      <stop
         offset="0"
         style="stop-color:#387EB8"
         id="stop2506" />
      <stop
         offset="1"
         style="stop-color:#366994"
         id="stop2508" />
    </linearGradient>
    <linearGradient
       id="SVGID_2_"
       gradientUnits="userSpaceOnUse"
       x1="97.044403"
       y1="21.632099"
       x2="155.6665"
       y2="-34.5308"
       gradientTransform="matrix(1,0,0,-1,-53.2974,66.4321)">
      <stop
         offset="0"
         style="stop-color:#FFE052"
         id="stop2513" />
      <stop
         offset="1"
         style="stop-color:#FFC331"
         id="stop2515" />
    </linearGradient>
  </defs>
  <g
     inkscape:label="Layer 1"
     inkscape:groupmode="layer"
     id="layer1">
    <g
       id="g745">
      <g
         id="g523">
        <rect
           style="fill:#4bc4ff;fill-opacity:1;stroke:#05c200;stroke-width:1.90495;stroke-linecap:round;stroke-linejoin:round;stroke-opacity:1"
           id="rect234-3"
           width="56.562653"
           height="25.4559"
           x="6.9964514"
           y="4.9109387"
           ry="2.5688627" />
        <rect
           style="fill:#05c200;stroke:#06c200;stroke-width:0.962355;stroke-linecap:round;stroke-linejoin:miter;stroke-dasharray:none"
           id="rect4272"
           width="7.9528613"
           height="23.854696"
           x="8.263854"
           y="6.1859655" />
        <rect
           style="fill:#05c200;stroke:#06c200;stroke-width:0.962355;stroke-linecap:round;stroke-linejoin:miter;stroke-dasharray:none"
           id="rect4637"
           width="7.9528613"
           height="23.854696"
           x="54.871372"
           y="6.1859655" />
        <circle
           style="fill:#024500;fill-opacity:1;stroke:none;stroke-width:1.46007;stroke-linecap:round;stroke-linejoin:miter;stroke-dasharray:none"
           id="path4691"
           cx="11.494164"
           cy="25.935408"
           r="3.5995443" />
        <circle
           style="fill:#024500;fill-opacity:1;stroke:none;stroke-width:1.46007;stroke-linecap:round;stroke-linejoin:miter;stroke-dasharray:none"
           id="circle5369"
           cx="59.169643"
           cy="25.935408"
           r="3.5995443" />
        <g
           id="g5429"
           transform="matrix(1.278203,0,0,1.278203,-7.003305,-2.196452)">
          <rect
             style="fill:#024500;fill-opacity:1;stroke:none;stroke-width:1;stroke-linecap:round;stroke-linejoin:miter;stroke-dasharray:none"
             id="rect5423"
             width="1.7864155"
             height="6.3160458"
             x="13.543342"
             y="6.5579705" />
          <rect
             style="fill:#024500;fill-opacity:1;stroke:none;stroke-width:1;stroke-linecap:round;stroke-linejoin:miter;stroke-dasharray:none"
             id="rect5425"
             width="1.7864155"
             height="6.3160458"
             x="8.8227854"
             y="-17.594572"
             transform="rotate(90)" />
        </g>
        <g
           id="g5503"
           transform="matrix(1.278203,0,0,1.278203,-12.360297,0.4173849)">
          <g
             id="g5489">
            <circle
               style="fill:#024500;fill-opacity:1;stroke:none;stroke-width:1;stroke-linecap:round;stroke-linejoin:miter;stroke-dasharray:none"
               id="path5483"
               cx="56.051388"
               cy="6.4091067"
               r="1.0083294" />
            <circle
               style="fill:#024500;fill-opacity:1;stroke:none;stroke-width:1;stroke-linecap:round;stroke-linejoin:miter;stroke-dasharray:none"
               id="circle5485"
               cx="56.051388"
               cy="10.374138"
               r="1.0083294" />
          </g>
          <g
             id="g5495"
             transform="rotate(90,56.051388,8.3916223)">
            <circle
               style="fill:#024500;fill-opacity:1;stroke:none;stroke-width:1;stroke-linecap:round;stroke-linejoin:miter;stroke-dasharray:none"
               id="circle5491"
               cx="56.051388"
               cy="6.4091067"
               r="1.0083294" />
            <circle
               style="fill:#024500;fill-opacity:1;stroke:none;stroke-width:1;stroke-linecap:round;stroke-linejoin:miter;stroke-dasharray:none"
               id="circle5493"
               cx="56.051388"
               cy="10.374138"
               r="1.0083294" />
          </g>
        </g>
      </g>
      <g
         id="g2668"
         transform="matrix(0.14577744,0,0,0.14577744,27.229404,9.6323546)">
        <path
           fill="url(#SVGID_1_)"
           d="m 55.023,-0.077 c -25.971,0 -26.25,10.081 -26.25,12.156 0,3.148 0,12.594 0,12.594 h 26.75 v 3.781 c 0,0 -27.852,0 -37.375,0 -7.949,0 -17.938,4.833 -17.938,26.25 0,19.673 7.792,27.281 15.656,27.281 2.335,0 9.344,0 9.344,0 0,0 0,-9.765 0,-13.125 0,-5.491 2.721,-15.656 15.406,-15.656 15.91,0 19.971,0 26.531,0 3.902,0 14.906,-1.696 14.906,-14.406 0,-13.452 0,-17.89 0,-24.219 0.001,-3.153 -0.538,-14.656 -27.03,-14.656 z m -14.75,8.469 c 2.662,0 4.813,2.15 4.813,4.813 0,2.661 -2.151,4.813 -4.813,4.813 -2.662,0 -4.813,-2.151 -4.813,-4.813 0,-2.663 2.151,-4.813 4.813,-4.813 z"
           id="path2511"
           style="fill:url(#SVGID_1_)" />
        <path
           fill="url(#SVGID_2_)"
           d="m 55.397,109.923 c 25.959,0 26.282,-10.271 26.282,-12.156 0,-3.148 0,-12.594 0,-12.594 H 54.897 v -3.781 c 0,0 28.032,0 37.375,0 8.009,0 17.938,-4.954 17.938,-26.25 0,-23.322 -10.538,-27.281 -15.656,-27.281 -2.336,0 -9.344,0 -9.344,0 0,0 0,10.216 0,13.125 0,5.491 -2.631,15.656 -15.406,15.656 -15.91,0 -19.476,0 -26.532,0 -3.892,0 -14.906,1.896 -14.906,14.406 0,14.475 0,18.265 0,24.219 0,5.23 3.196,14.656 27.031,14.656 z m 14.751,-8.469 c -2.662,0 -4.813,-2.151 -4.813,-4.813 0,-2.662 2.15,-4.813 4.813,-4.813 2.661,0 4.813,2.151 4.813,4.813 0,2.662 -2.152,4.813 -4.813,4.813 z"
           id="path2518"
           style="fill:url(#SVGID_2_)" />
      </g>
    </g>
  </g>
</svg>
